<?xml version="1.0" encoding="utf-8"?>
<!-- Generator: Adobe Illustrator 28.2.0, SVG Export Plug-In . SVG Version: 6.00 Build 0)  -->
<svg version="1.1" id="Layer_1" xmlns="http://www.w3.org/2000/svg" xmlns:xlink="http://www.w3.org/1999/xlink" x="0px" y="0px"
	 viewBox="0 0 100 125" style="enable-background:new 0 0 100 125;" xml:space="preserve">
<path d="M39,50c3.1,0,5.6-4.7,5.6-10.5c0-5.8-2.5-10.5-5.6-10.5c-3.1,0-5.6,4.7-5.6,10.5C33.4,45.3,35.9,50,39,50"/>
<path d="M61.5,50c3.1,0,5.6-4.7,5.6-10.5c0-5.8-2.5-10.5-5.6-10.5c-3.1,0-5.6,4.7-5.6,10.5C55.9,45.3,58.4,50,61.5,50"/>
<path d="M50.3,5c-24.9,0-45,20.1-45,45c0,24.9,20.1,45,45,45c24.9,0,45-20.1,45-45C95.3,25.1,75.1,5,50.3,5 M50.3,90.8
	C27.8,90.8,9.5,72.5,9.5,50c0-22.5,18.3-40.8,40.8-40.8C72.7,9.2,91,27.5,91,50C91,72.5,72.7,90.8,50.3,90.8"/>
<path d="M69.9,55.5c0,0,1.9,1.9,3.9,3.9c-5,7-13.6,11.6-23.5,11.6c-9.9,0-18.6-4.7-23.6-11.7c2-2,3.8-3.9,3.8-3.9
	c-8.5,0-8.4,8.5-8.4,8.5c0.6-0.6,1.7-1.7,2.9-3c4.6,8.4,14.1,15.6,25.2,15.6c11.1,0,20.6-7.2,25.2-15.6c1.2,1.3,2.3,2.4,2.9,2.9
	C78.3,64.1,78.5,55.5,69.9,55.5"/>
</svg>
